<svg width="20" height="20" viewBox="0 0 67 67" fill="none" xmlns="http://www.w3.org/2000/svg">
<path d="M60.53 66.76H6.26001C3.05001 66.76 0.439941 64.15 0.439941 60.94V6.66997C0.439941 3.45997 3.05001 0.849976 6.26001 0.849976H60.53C63.74 0.849976 66.3501 3.45997 66.3501 6.66997V60.94C66.3501 64.15 63.74 66.76 60.53 66.76ZM6.26001 2.31998C3.86001 2.31998 1.90991 4.26997 1.90991 6.66997V60.94C1.90991 63.34 3.86001 65.29 6.26001 65.29H60.53C62.93 65.29 64.8799 63.34 64.8799 60.94V6.66997C64.8799 4.26997 62.93 2.31998 60.53 2.31998H6.26001Z" fill="black" />
<path d="M53.1699 32.69C53.0399 30.18 52.4199 27.79 51.4299 25.59C51.0699 24.84 50.68 24.08 50.21 23.35C46.92 18.07 41.2001 14.42 34.6201 14.03C34.2001 14.01 33.7999 13.99 33.3799 13.99C33.2999 13.99 33.2099 13.99 33.1299 14.01H32.75C32.62 14.01 32.4801 14.01 32.3701 14.03C25.6901 14.37 19.88 18.01 16.55 23.35C16.11 24.08 15.6901 24.84 15.3301 25.59C14.3501 27.79 13.7401 30.18 13.5901 32.69C13.5701 33.07 13.55 33.42 13.55 33.8C13.55 34.18 13.5701 34.55 13.5901 34.93C13.7401 37.44 14.3401 39.83 15.3301 42.01C15.6901 42.79 16.11 43.54 16.55 44.25C19.88 49.59 25.6801 53.26 32.3701 53.59C32.6201 53.59 32.8701 53.61 33.1201 53.61H33.6399C33.7199 53.59 33.8299 53.59 33.9099 53.59L34.6001 53.57C41.1801 53.17 46.8999 49.55 50.1899 44.25C50.6499 43.54 51.0499 42.78 51.4099 42.01C52.3899 39.83 53.0199 37.44 53.1499 34.93C53.1699 34.55 53.1899 34.18 53.1899 33.8C53.1899 33.42 53.1699 33.07 53.1499 32.69H53.1699ZM48.9399 42.01C48.5199 42.81 48.04 43.54 47.52 44.25C45.19 47.39 41.86 49.72 37.99 50.77C36.92 51.06 35.7899 51.25 34.6399 51.34C34.2799 51.36 33.93 51.38 33.55 51.38H33.3999C33.0599 51.38 32.7299 51.38 32.3899 51.36C31.1499 51.28 29.9401 51.09 28.8101 50.77C24.9301 49.72 21.6 47.38 19.28 44.25C18.76 43.54 18.2699 42.8 17.8799 42.01C16.7499 39.87 16.0401 37.46 15.8701 34.93C15.8501 34.55 15.8301 34.18 15.8301 33.8C15.8301 33.42 15.8501 33.07 15.8701 32.69C16.0401 30.13 16.7499 27.75 17.8799 25.59C18.2999 24.81 18.76 24.06 19.28 23.35C21.61 20.23 24.9401 17.9 28.8101 16.86C29.9401 16.55 31.1599 16.34 32.3899 16.27C32.7299 16.25 33.0599 16.23 33.3999 16.23C33.4599 16.23 33.5 16.23 33.55 16.25C33.93 16.25 34.2799 16.25 34.6399 16.29C35.7899 16.35 36.92 16.54 37.99 16.86C41.87 17.91 45.2 20.23 47.52 23.35C48.04 24.06 48.5299 24.82 48.9399 25.59C50.0699 27.75 50.7799 30.14 50.9299 32.69C50.9499 33.07 50.97 33.42 50.97 33.8C50.97 34.18 50.9499 34.55 50.9299 34.93C50.7799 37.46 50.0699 39.87 48.9399 42.01Z" fill="black" />
<path d="M41.3101 25.58C41.1601 24.8 41.0001 24.07 40.8101 23.34C40.1201 20.68 39.15 18.44 37.98 16.85C37 15.47 35.8599 14.55 34.6299 14.17C34.2299 14.04 33.8099 13.98 33.3899 13.98C33.3099 13.98 33.2199 13.98 33.1399 14C32.8899 14 32.6199 14.06 32.3899 14.13C31.0699 14.44 29.8601 15.39 28.8101 16.85C27.6401 18.44 26.67 20.68 25.98 23.34C25.79 24.07 25.62 24.81 25.48 25.58C25.08 27.76 24.83 30.15 24.77 32.68V34.92C24.83 37.45 25.08 39.84 25.48 42C25.63 42.78 25.79 43.53 25.98 44.24C26.67 46.92 27.6401 49.14 28.8101 50.76C29.8601 52.21 31.0699 53.17 32.3899 53.48C32.5599 53.52 32.7499 53.56 32.9099 53.58C32.9899 53.58 33.0599 53.6 33.1399 53.6H33.6599C33.7399 53.58 33.8499 53.58 33.9299 53.58C34.1599 53.54 34.3901 53.5 34.6201 53.43C35.8601 53.05 36.99 52.13 37.97 50.75C39.14 49.14 40.11 46.92 40.8 44.23C40.99 43.52 41.16 42.76 41.3 41.99C41.72 39.83 41.95 37.44 42.01 34.91V32.67C41.95 30.13 41.72 27.75 41.3 25.57L41.3101 25.58ZM39.01 42.01C38.86 42.81 38.67 43.54 38.47 44.25C37.51 47.73 36.0799 50.12 34.6399 51C34.2599 51.21 33.91 51.36 33.55 51.38H33.3999C33.0599 51.38 32.7299 51.3 32.3899 51.11C30.8599 50.33 29.3501 47.88 28.3301 44.26C28.1201 43.55 27.95 42.81 27.79 42.02C27.37 39.92 27.08 37.54 27.04 34.94C27.02 34.56 27.02 34.19 27.02 33.81C27.02 33.43 27.02 33.08 27.04 32.7C27.08 30.08 27.38 27.71 27.79 25.6C27.96 24.82 28.1301 24.07 28.3301 23.36C29.3601 19.74 30.8699 17.28 32.3899 16.51C32.7299 16.34 33.0599 16.24 33.3999 16.24C33.4599 16.24 33.5 16.24 33.55 16.26C33.91 16.28 34.2599 16.41 34.6399 16.64C36.0899 17.52 37.51 19.91 38.47 23.37C38.68 24.08 38.87 24.84 39.01 25.61C39.45 27.73 39.72 30.09 39.79 32.71V34.95C39.73 37.55 39.45 39.94 39.01 42.03V42.01Z" fill="black" />
<path d="M34.6201 23.35V25.59H15.3601C15.7201 24.82 16.1201 24.07 16.5701 23.35H34.6201Z" fill="black" />
<path d="M51.4299 25.59H39.01C38.85 24.8 38.67 24.05 38.47 23.35H50.22C50.67 24.07 51.0699 24.82 51.4199 25.59H51.4299Z" fill="black" />
<path d="M34.6201 14.02V53.58H33.9299L32.9199 53.59H32.3799V14.01C32.4999 14.01 32.63 14 32.76 13.99C32.88 13.99 33.0099 13.99 33.1399 13.99C33.2199 13.99 33.3099 13.99 33.3999 13.99C33.8099 13.99 34.2201 14 34.6201 14.03V14.02Z" fill="black" />
<path d="M53.21 33.7999C53.21 34.1799 53.1999 34.55 53.1799 34.92H13.6201C13.6001 34.55 13.5901 34.1699 13.5901 33.7999C13.5901 33.4299 13.6001 33.0499 13.6201 32.6799H53.1799C53.1999 33.0499 53.21 33.4299 53.21 33.7999Z" fill="black" />
<path d="M27.78 42.01C27.94 42.8 28.1201 43.55 28.3201 44.25H16.5601C16.1201 43.53 15.7101 42.78 15.3501 42.01H27.77H27.78Z" fill="black" />
<path d="M51.4299 42.01C51.0799 42.78 50.67 43.53 50.23 44.25H32.3799V42.01H51.4299Z" fill="black" />
</svg>