<svg width="160" height="75" viewBox="0 0 546 124" fill="none" xmlns="http://www.w3.org/2000/svg">
<path d="M50.71 74.34H44.49C41.8 74.34 39.1 74.31 36.41 74.36C35.58 74.38 35.0699 74.11 34.5699 73.46C30.4099 68.01 26.2001 62.61 22.0601 57.15C21.4401 56.34 20.8 56.01 19.79 56.05C17.8 56.13 15.8099 56.07 13.6899 56.07V74.26H0.75V19.01C1.13 18.99 1.5 18.94 1.88 18.94C10.39 18.94 18.9 18.93 27.42 18.94C32.45 18.94 37.17 20.02 41.16 23.26C45.81 27.04 47.65 32.1 47.6 37.95C47.53 46.04 43.5 51.77 35.91 54.63C35.67 54.72 35.45 54.83 35.09 54.99C40.28 61.41 45.41 67.76 50.72 74.34M13.67 30.02V45.44C13.83 45.5 13.9499 45.58 14.0699 45.58C18.7099 45.55 23.36 45.65 27.99 45.43C31.8 45.25 34.31 42.7 34.74 39.07C35.23 34.9 33.5 31.75 29.91 30.62C28.61 30.21 27.1899 30.1 25.8199 30.05C23.3099 29.96 20.79 30.02 18.27 30.02H13.67Z" fill="#26519F" class="svg-elem-1" />
<path d="M194.39 18.93C197.91 18.93 201.34 18.93 204.77 18.93C210.29 18.93 215.8 18.91 221.32 18.93C226.26 18.96 230.89 20.07 234.8 23.25C239.45 27.03 241.29 32.09 241.24 37.94C241.17 46.03 237.14 51.76 229.55 54.62C229.31 54.71 229.09 54.82 228.73 54.98C233.92 61.4 239.05 67.75 244.36 74.33H238.27C235.58 74.33 232.88 74.29 230.19 74.35C229.27 74.37 228.69 74.08 228.14 73.35C224.01 67.94 219.83 62.57 215.71 57.15C215.09 56.34 214.45 56.01 213.44 56.05C211.45 56.13 209.46 56.07 207.34 56.07V74.26H194.4V18.93H194.39ZM207.31 45.44C207.48 45.5 207.6 45.57 207.72 45.57C212.36 45.54 217.01 45.64 221.64 45.42C225.45 45.24 227.96 42.68 228.38 39.05C228.87 34.87 227.14 31.73 223.55 30.6C222.25 30.19 220.83 30.07 219.46 30.03C216.77 29.94 214.08 30 211.39 30C210.06 30 208.72 30 207.32 30V45.42L207.31 45.44Z" fill="#26519F" class="svg-elem-2" />
<path d="M184.78 63.36V74.26H141.73V19.01H183.86V29.77H154.33V41.02H182.27V51.46H154.32V63.36H184.78Z" fill="#26519F" class="svg-elem-3" />
<path d="M70.89 18.97H58.08V74.26H70.89V18.97Z" fill="#26519F" class="svg-elem-4" />
<path d="M412.18 18.0701C415.88 18.0701 419.48 18.0401 423.08 18.1101C423.56 18.1201 424.14 18.6001 424.48 19.0201C430.23 26.1401 435.95 33.2801 441.68 40.4201C441.98 40.7901 442.29 41.1401 442.69 41.6101C443.72 40.3401 444.69 39.1501 445.66 37.9401C450.71 31.6501 455.76 25.3601 460.79 19.0501C461.35 18.3401 461.92 18.0201 462.85 18.0401C466.27 18.1001 469.69 18.0601 473.2 18.0601V73.3601H460.39V39.2901C460.3 39.2501 460.21 39.2101 460.12 39.1601C459.8 39.5201 459.47 39.8801 459.17 40.2501C454.39 46.0901 449.62 51.9301 444.83 57.7701C443.68 59.1701 441.84 59.1501 440.69 57.7501C435.84 51.8501 430.99 45.9601 426.14 40.0701C425.87 39.7401 425.58 39.4401 425.07 38.8601V73.4001H412.2V18.0601L412.18 18.0701Z" fill="#26519F" class="svg-elem-5" />
<path d="M364.16 54.12C369.37 60.56 374.48 66.89 379.73 73.38C379.18 73.42 378.81 73.46 378.45 73.46C374.15 73.46 369.85 73.44 365.55 73.48C364.67 73.48 364.13 73.21 363.6 72.52C359.47 67.11 355.28 61.74 351.17 56.32C350.52 55.46 349.85 55.13 348.79 55.17C346.84 55.25 344.89 55.19 342.8 55.19V73.36H329.8V18.13C330.15 18.1 330.52 18.05 330.89 18.05C339.49 18.05 348.09 18.03 356.69 18.05C361.63 18.06 366.26 19.17 370.19 22.33C374.81 26.06 376.67 31.07 376.68 36.87C376.68 45.04 372.61 50.88 364.92 53.76C364.72 53.84 364.53 53.93 364.17 54.09M342.73 44.55C347.73 44.55 352.64 44.79 357.51 44.47C361.1 44.23 363.05 42.07 363.71 38.78C364.4 35.35 363.25 32.16 360.7 30.52C359 29.42 357.07 29.16 355.1 29.15C351.32 29.15 347.55 29.15 343.77 29.15C343.44 29.15 343.11 29.22 342.73 29.26V44.55Z" fill="#26519F" class="svg-elem-6" />
<path d="M524.9 0.530029H545.9V22.81H535.4V11.67H524.9V0.530029Z" fill="#F0C818" class="svg-elem-7" />
<path d="M526 40.16V50.55H497.99V62.49H528.42V73.39H485.41V18.14H527.54V28.9H498V40.16H526Z" fill="#26519F" class="svg-elem-8" />
<path d="M287.5 73.4001H274.53V18.1301C274.96 18.1101 275.38 18.0701 275.79 18.0701C284.09 18.0701 292.38 18.0701 300.68 18.0701C305.27 18.0701 309.69 18.8201 313.64 21.2901C319.82 25.1601 322.23 31.0301 322.2 38.0701C322.17 44.1301 320.27 49.4001 315.39 53.2901C311.8 56.1501 307.59 57.4501 303.07 57.6101C298.43 57.7701 293.78 57.7001 289.13 57.7301C288.62 57.7301 288.11 57.7301 287.5 57.7301V73.4101V73.4001ZM287.49 46.4201C291.66 46.4201 295.72 46.4201 299.79 46.4201C300.44 46.4201 301.1 46.4301 301.74 46.3501C306.41 45.7801 309.26 42.7001 309.35 38.1601C309.44 33.5901 306.76 30.3201 302.09 29.7201C299.66 29.4101 297.16 29.5601 294.69 29.5401C292.32 29.5201 289.94 29.5401 287.5 29.5401V46.4401L287.49 46.4201Z" fill="#26519F" class="svg-elem-9" />
<path d="M399.98 18.1001H387.17V73.3901H399.98V18.1001Z" fill="#26519F" class="svg-elem-10" />
<path d="M93.97 35.4301H80.23L96.04 73.9501L103.16 57.9201L93.97 35.4301Z" fill="#F0C818" class="svg-elem-11" />
<path d="M122.95 18.9L100.08 74.42L99.83 75.02H113.57L136.44 19.5L136.69 18.9H122.95Z" fill="#26519F" class="svg-elem-12" />
<path d="M85 103.47H100.82V105.86H94.2V122.56H91.59V105.86H85V103.47Z" fill="#26519F" class="svg-elem-13" />
<path d="M136.79 109.9C136.79 112.95 135.1 114.96 132.49 115.85V115.98L137.42 122.06V122.57H134.52L129.52 116.36H123.7V122.57H121.09V103.47H129.08C133.85 103.47 136.78 105.73 136.78 109.9M129.03 105.86H123.71V114.01H129.28C132.08 114.01 134.05 112.74 134.05 109.97C134.05 107.2 132.08 105.86 129.02 105.86" fill="#26519F" class="svg-elem-14" />
<path d="M164.99 103.47H165.53L175.05 122.57H172.06L170.5 119.45H160.03L158.47 122.57H155.51L164.99 103.47ZM165.41 108.62H165.09L161.37 116.8L161.18 117.12H169.36L169.17 116.8L165.41 108.62Z" fill="#26519F" class="svg-elem-15" />
<path d="M201.66 122.57H194.82V103.47H201.66C207.74 103.47 211.81 107.23 211.81 113.02C211.81 118.81 207.74 122.57 201.66 122.57ZM197.43 105.86V120.18H201.47C205.83 120.18 209.14 117.57 209.14 113.02C209.14 108.47 205.83 105.86 201.47 105.86H197.43Z" fill="#26519F" class="svg-elem-16" />
<path d="M245.69 114.29H235.63V120.18H247.21V122.56H233.02V103.47H247.21V105.86H235.63V111.97H245.69V114.29Z" fill="#26519F" class="svg-elem-17" />
<path d="M307.37 109.9C307.37 112.95 305.68 114.96 303.07 115.85V115.98L308 122.06V122.57H305.1L300.1 116.36H294.28V122.57H291.67V103.47H299.66C304.43 103.47 307.36 105.73 307.36 109.9M299.61 105.86H294.29V114.01H299.86C302.66 114.01 304.63 112.74 304.63 109.97C304.63 107.2 302.66 105.86 299.6 105.86" fill="#26519F" class="svg-elem-18" />
<path d="M331.57 103.47H328.96V122.57H331.57V103.47Z" fill="#26519F" class="svg-elem-19" />
<path d="M362.12 111.97H371.57V113.44C371.57 119.2 368.29 123.02 362.59 123.02C356.45 123.02 352.69 118.6 352.69 113.06C352.69 107.52 356.57 103.07 362.68 103.07C367.58 103.07 369.78 105.55 369.78 105.55L368.22 107.55C368.22 107.55 366.21 105.55 362.68 105.55C358.19 105.55 355.36 108.89 355.36 113.06C355.36 117.23 358.07 120.54 362.55 120.54C366.27 120.54 368.79 118.09 368.85 114.56V114.31H362.1V111.99L362.12 111.97Z" fill="#26519F" class="svg-elem-20" />
<path d="M408.88 122.57H406.24V114.35H395.26V122.57H392.65V103.47H395.26V112H406.24V103.47H408.88V122.57Z" fill="#26519F" class="svg-elem-21" />
<path d="M429.16 103.47H444.98V105.86H438.36V122.56H435.75V105.86H429.16V103.47Z" fill="#26519F" class="svg-elem-22" />
</svg>
