<svg width="20" height="20" viewBox="0 0 67 67" fill="none" xmlns="http://www.w3.org/2000/svg">
<path d="M60.53 66.49H6.26001C3.05001 66.49 0.439941 63.88 0.439941 60.67V6.40001C0.439941 3.19001 3.05001 0.580017 6.26001 0.580017H60.53C63.74 0.580017 66.3501 3.19001 66.3501 6.40001V60.67C66.3501 63.88 63.74 66.49 60.53 66.49ZM6.26001 2.05002C3.86001 2.05002 1.90991 4.00001 1.90991 6.40001V60.67C1.90991 63.07 3.86001 65.02 6.26001 65.02H60.53C62.93 65.02 64.8799 63.07 64.8799 60.67V6.40001C64.8799 4.00001 62.93 2.05002 60.53 2.05002H6.26001Z" fill="black" />
<path d="M47.5602 45.41L47.4601 45.39C44.7801 44.74 42.4101 43.19 40.7901 40.97L40.68 40.82C40.05 40.4 39.2101 40.53 38.7501 41.13L36.7401 43.71C36.3001 44.26 35.54 44.42 34.92 44.09C33.54 43.33 33.5401 40.95 29.9901 37.42C26.4301 33.86 24.1202 33.9 23.3702 32.54C23.0302 31.91 23.1801 31.14 23.7501 30.7L26.3102 28.71C26.9002 28.23 27.06 27.39 26.63 26.78L26.17 26.42C24.09 24.78 22.6301 22.48 22.0401 19.9C21.7501 19.48 21.2902 19.25 20.8402 19.25C20.5902 19.25 20.3402 19.33 20.1102 19.46L17.2201 21.18C16.4401 21.64 15.8602 22.38 15.6102 23.25C14.8302 26.12 14.6702 32.47 24.8302 42.62C34.9802 52.75 41.31 52.6 44.18 51.82C45.06 51.57 45.7901 51 46.2501 50.21L47.9901 47.34C48.3701 46.67 48.1802 45.83 47.5502 45.41H47.5602Z" fill="black" />
<path d="M41.47 32.68C41.17 32.68 40.9001 32.5 40.7901 32.21C40.6801 31.91 40.56 31.54 40.43 31.05C39.85 28.87 38.13 27.15 35.95 26.54C35.49 26.41 35.1301 26.29 34.8401 26.18C34.4601 26.03 34.28 25.6 34.43 25.23C34.58 24.85 34.9999 24.67 35.3799 24.82C35.6099 24.91 35.9301 25.02 36.3401 25.13C39.0101 25.87 41.1201 27.99 41.8401 30.67C41.9501 31.1 42.0599 31.44 42.1499 31.68C42.2899 32.06 42.1 32.48 41.73 32.63C41.64 32.66 41.56 32.68 41.47 32.68Z" fill="black" />
<path d="M46.01 32.33C45.72 32.33 45.4401 32.15 45.3301 31.86C45.1401 31.37 44.95 30.74 44.73 29.93C43.68 26.02 40.6 22.92 36.69 21.84C35.93 21.63 35.3101 21.43 34.8401 21.24C34.4601 21.09 34.28 20.66 34.43 20.29C34.58 19.91 34.9999 19.73 35.3799 19.88C35.7999 20.05 36.3701 20.23 37.0801 20.43C41.4901 21.65 44.9599 25.15 46.1399 29.55C46.3399 30.3 46.53 30.9 46.69 31.34C46.83 31.72 46.65 32.14 46.27 32.29C46.18 32.32 46.1 32.34 46.01 32.34V32.33Z" fill="black" />
<path d="M50.7501 32.68C50.4601 32.68 50.1801 32.5 50.0701 32.21C49.8001 31.5 49.51 30.56 49.19 29.4C47.61 23.52 42.9701 18.85 37.0801 17.22C35.9701 16.91 35.0699 16.62 34.3899 16.35C34.0099 16.2 33.83 15.77 33.98 15.4C34.13 15.02 34.55 14.84 34.93 14.99C35.56 15.24 36.41 15.51 37.47 15.81C43.86 17.58 48.8902 22.64 50.6002 29.02C50.9002 30.13 51.18 31.03 51.43 31.69C51.57 32.07 51.3901 32.49 51.0101 32.64C50.9201 32.67 50.8401 32.69 50.7501 32.69V32.68Z" fill="black" />
</svg>