 <svg width="50" height="50" viewBox="0 0 196 196" fill="none" xmlns="http://www.w3.org/2000/svg">
                        <path d="M194.18 2H2V194.18H194.18V2Z" stroke="#050505" stroke-width="3.1" stroke-miterlimit="10" />
                        <path d="M60.21 14.74H55.16V19.79H60.21V14.74Z" fill="black" />
                        <path d="M70.3101 14.74H65.26V19.79H70.3101V14.74Z" fill="black" />
                        <path d="M80.41 14.74H75.36V19.79H80.41V14.74Z" fill="black" />
                        <path d="M100.62 14.74H95.5701V19.79H100.62V14.74Z" fill="black" />
                        <path d="M120.83 14.74H115.78V19.79H120.83V14.74Z" fill="black" />
                        <path d="M125.88 14.74H120.83V19.79H125.88V14.74Z" fill="black" />
                        <path d="M135.98 14.74H130.93V19.79H135.98V14.74Z" fill="black" />
                        <path d="M141.03 14.74H135.98V19.79H141.03V14.74Z" fill="black" />
                        <path d="M60.21 19.8H55.16V24.8501H60.21V19.8Z" fill="black" />
                        <path d="M65.26 19.8H60.21V24.8501H65.26V19.8Z" fill="black" />
                        <path d="M80.41 19.8H75.36V24.8501H80.41V19.8Z" fill="black" />
                        <path d="M90.52 19.8H85.47V24.8501H90.52V19.8Z" fill="black" />
                        <path d="M95.5701 19.8H90.52V24.8501H95.5701V19.8Z" fill="black" />
                        <path d="M100.62 19.8H95.5701V24.8501H100.62V19.8Z" fill="black" />
                        <path d="M105.67 19.8H100.62V24.8501H105.67V19.8Z" fill="black" />
                        <path d="M110.72 19.8H105.67V24.8501H110.72V19.8Z" fill="black" />
                        <path d="M115.77 19.8H110.72V24.8501H115.77V19.8Z" fill="black" />
                        <path d="M141.03 19.8H135.98V24.8501H141.03V19.8Z" fill="black" />
                        <path d="M60.21 24.85H55.16V29.9H60.21V24.85Z" fill="black" />
                        <path d="M65.26 24.85H60.21V29.9H65.26V24.85Z" fill="black" />
                        <path d="M75.36 24.85H70.3101V29.9H75.36V24.85Z" fill="black" />
                        <path d="M80.41 24.85H75.36V29.9H80.41V24.85Z" fill="black" />
                        <path d="M85.46 24.85H80.41V29.9H85.46V24.85Z" fill="black" />
                        <path d="M90.52 24.85H85.47V29.9H90.52V24.85Z" fill="black" />
                        <path d="M95.5701 24.85H90.52V29.9H95.5701V24.85Z" fill="black" />
                        <path d="M110.72 24.85H105.67V29.9H110.72V24.85Z" fill="black" />
                        <path d="M120.83 24.85H115.78V29.9H120.83V24.85Z" fill="black" />
                        <path d="M125.88 24.85H120.83V29.9H125.88V24.85Z" fill="black" />
                        <path d="M130.93 24.85H125.88V29.9H130.93V24.85Z" fill="black" />
                        <path d="M135.98 24.85H130.93V29.9H135.98V24.85Z" fill="black" />
                        <path d="M141.03 24.85H135.98V29.9H141.03V24.85Z" fill="black" />
                        <path d="M70.3101 29.9H65.26V34.95H70.3101V29.9Z" fill="black" />
                        <path d="M80.41 29.9H75.36V34.95H80.41V29.9Z" fill="black" />
                        <path d="M85.46 29.9H80.41V34.95H85.46V29.9Z" fill="black" />
                        <path d="M90.52 29.9H85.47V34.95H90.52V29.9Z" fill="black" />
                        <path d="M95.5701 29.9H90.52V34.95H95.5701V29.9Z" fill="black" />
                        <path d="M100.62 29.9H95.5701V34.95H100.62V29.9Z" fill="black" />
                        <path d="M105.67 29.9H100.62V34.95H105.67V29.9Z" fill="black" />
                        <path d="M110.72 29.9H105.67V34.95H110.72V29.9Z" fill="black" />
                        <path d="M135.98 29.9H130.93V34.95H135.98V29.9Z" fill="black" />
                        <path d="M65.26 34.95H60.21V40H65.26V34.95Z" fill="black" />
                        <path d="M70.3101 34.95H65.26V40H70.3101V34.95Z" fill="black" />
                        <path d="M75.36 34.95H70.3101V40H75.36V34.95Z" fill="black" />
                        <path d="M85.46 34.95H80.41V40H85.46V34.95Z" fill="black" />
                        <path d="M90.52 34.95H85.47V40H90.52V34.95Z" fill="black" />
                        <path d="M110.72 34.95H105.67V40H110.72V34.95Z" fill="black" />
                        <path d="M115.77 34.95H110.72V40H115.77V34.95Z" fill="black" />
                        <path d="M141.03 34.95H135.98V40H141.03V34.95Z" fill="black" />
                        <path d="M80.41 40H75.36V45.05H80.41V40Z" fill="black" />
                        <path d="M100.62 40H95.5701V45.05H100.62V40Z" fill="black" />
                        <path d="M110.72 40H105.67V45.05H110.72V40Z" fill="black" />
                        <path d="M115.77 40H110.72V45.05H115.77V40Z" fill="black" />
                        <path d="M130.93 40H125.88V45.05H130.93V40Z" fill="black" />
                        <path d="M70.3101 50.11H65.26V55.16H70.3101V50.11Z" fill="black" />
                        <path d="M85.46 50.11H80.41V55.16H85.46V50.11Z" fill="black" />
                        <path d="M95.5701 50.11H90.52V55.16H95.5701V50.11Z" fill="black" />
                        <path d="M110.72 50.11H105.67V55.16H110.72V50.11Z" fill="black" />
                        <path d="M115.77 50.11H110.72V55.16H115.77V50.11Z" fill="black" />
                        <path d="M125.88 50.11H120.83V55.16H125.88V50.11Z" fill="black" />
                        <path d="M130.93 50.11H125.88V55.16H130.93V50.11Z" fill="black" />
                        <path d="M141.03 50.11H135.98V55.16H141.03V50.11Z" fill="black" />
                        <path d="M29.9 55.16H24.85V60.21H29.9V55.16Z" fill="black" />
                        <path d="M34.9501 55.16H29.9V60.21H34.9501V55.16Z" fill="black" />
                        <path d="M75.36 55.16H70.3101V60.21H75.36V55.16Z" fill="black" />
                        <path d="M85.46 55.16H80.41V60.21H85.46V55.16Z" fill="black" />
                        <path d="M90.52 55.16H85.47V60.21H90.52V55.16Z" fill="black" />
                        <path d="M100.62 55.16H95.5701V60.21H100.62V55.16Z" fill="black" />
                        <path d="M105.67 55.16H100.62V60.21H105.67V55.16Z" fill="black" />
                        <path d="M110.72 55.16H105.67V60.21H110.72V55.16Z" fill="black" />
                        <path d="M115.77 55.16H110.72V60.21H115.77V55.16Z" fill="black" />
                        <path d="M125.88 55.16H120.83V60.21H125.88V55.16Z" fill="black" />
                        <path d="M130.93 55.16H125.88V60.21H130.93V55.16Z" fill="black" />
                        <path d="M141.03 55.16H135.98V60.21H141.03V55.16Z" fill="black" />
                        <path d="M146.08 55.16H141.03V60.21H146.08V55.16Z" fill="black" />
                        <path d="M151.13 55.16H146.08V60.21H151.13V55.16Z" fill="black" />
                        <path d="M156.19 55.16H151.14V60.21H156.19V55.16Z" fill="black" />
                        <path d="M171.34 55.16H166.29V60.21H171.34V55.16Z" fill="black" />
                        <path d="M176.39 55.16H171.34V60.21H176.39V55.16Z" fill="black" />
                        <path d="M181.44 55.16H176.39V60.21H181.44V55.16Z" fill="black" />
                        <path d="M29.9 60.21H24.85V65.2599H29.9V60.21Z" fill="black" />
                        <path d="M34.9501 60.21H29.9V65.2599H34.9501V60.21Z" fill="black" />
                        <path d="M40 60.21H34.9501V65.2599H40V60.21Z" fill="black" />
                        <path d="M45.05 60.21H40V65.2599H45.05V60.21Z" fill="black" />
                        <path d="M65.26 60.21H60.21V65.2599H65.26V60.21Z" fill="black" />
                        <path d="M70.3101 60.21H65.26V65.2599H70.3101V60.21Z" fill="black" />
                        <path d="M75.36 60.21H70.3101V65.2599H75.36V60.21Z" fill="black" />
                        <path d="M80.41 60.21H75.36V65.2599H80.41V60.21Z" fill="black" />
                        <path d="M85.46 60.21H80.41V65.2599H85.46V60.21Z" fill="black" />
                        <path d="M120.83 60.21H115.78V65.2599H120.83V60.21Z" fill="black" />
                        <path d="M135.98 60.21H130.93V65.2599H135.98V60.21Z" fill="black" />
                        <path d="M146.08 60.21H141.03V65.2599H146.08V60.21Z" fill="black" />
                        <path d="M151.13 60.21H146.08V65.2599H151.13V60.21Z" fill="black" />
                        <path d="M171.34 60.21H166.29V65.2599H171.34V60.21Z" fill="black" />
                        <path d="M176.39 60.21H171.34V65.2599H176.39V60.21Z" fill="black" />
                        <path d="M181.44 60.21H176.39V65.2599H181.44V60.21Z" fill="black" />
                        <path d="M24.85 65.26H19.8V70.31H24.85V65.26Z" fill="black" />
                        <path d="M34.9501 65.26H29.9V70.31H34.9501V65.26Z" fill="black" />
                        <path d="M45.05 65.26H40V70.31H45.05V65.26Z" fill="black" />
                        <path d="M55.16 65.26H50.11V70.31H55.16V65.26Z" fill="black" />
                        <path d="M60.21 65.26H55.16V70.31H60.21V65.26Z" fill="black" />
                        <path d="M65.26 65.26H60.21V70.31H65.26V65.26Z" fill="black" />
                        <path d="M70.3101 65.26H65.26V70.31H70.3101V65.26Z" fill="black" />
                        <path d="M85.46 65.26H80.41V70.31H85.46V65.26Z" fill="black" />
                        <path d="M90.52 65.26H85.47V70.31H90.52V65.26Z" fill="black" />
                        <path d="M95.5701 65.26H90.52V70.31H95.5701V65.26Z" fill="black" />
                        <path d="M100.62 65.26H95.5701V70.31H100.62V65.26Z" fill="black" />
                        <path d="M115.77 65.26H110.72V70.31H115.77V65.26Z" fill="black" />
                        <path d="M130.93 65.26H125.88V70.31H130.93V65.26Z" fill="black" />
                        <path d="M146.08 65.26H141.03V70.31H146.08V65.26Z" fill="black" />
                        <path d="M151.13 65.26H146.08V70.31H151.13V65.26Z" fill="black" />
                        <path d="M156.19 65.26H151.14V70.31H156.19V65.26Z" fill="black" />
                        <path d="M176.39 65.26H171.34V70.31H176.39V65.26Z" fill="black" />
                        <path d="M34.9501 70.3101H29.9V75.3601H34.9501V70.3101Z" fill="black" />
                        <path d="M40 70.3101H34.9501V75.3601H40V70.3101Z" fill="black" />
                        <path d="M55.16 70.3101H50.11V75.3601H55.16V70.3101Z" fill="black" />
                        <path d="M70.3101 70.3101H65.26V75.3601H70.3101V70.3101Z" fill="black" />
                        <path d="M75.36 70.3101H70.3101V75.3601H75.36V70.3101Z" fill="black" />
                        <path d="M85.46 70.3101H80.41V75.3601H85.46V70.3101Z" fill="black" />
                        <path d="M105.67 70.3101H100.62V75.3601H105.67V70.3101Z" fill="black" />
                        <path d="M110.72 70.3101H105.67V75.3601H110.72V70.3101Z" fill="black" />
                        <path d="M120.83 70.3101H115.78V75.3601H120.83V70.3101Z" fill="black" />
                        <path d="M141.03 70.3101H135.98V75.3601H141.03V70.3101Z" fill="black" />
                        <path d="M146.08 70.3101H141.03V75.3601H146.08V70.3101Z" fill="black" />
                        <path d="M151.13 70.3101H146.08V75.3601H151.13V70.3101Z" fill="black" />
                        <path d="M166.29 70.3101H161.24V75.3601H166.29V70.3101Z" fill="black" />
                        <path d="M171.34 70.3101H166.29V75.3601H171.34V70.3101Z" fill="black" />
                        <path d="M176.39 70.3101H171.34V75.3601H176.39V70.3101Z" fill="black" />
                        <path d="M24.85 75.36H19.8V80.41H24.85V75.36Z" fill="black" />
                        <path d="M55.16 75.36H50.11V80.41H55.16V75.36Z" fill="black" />
                        <path d="M65.26 75.36H60.21V80.41H65.26V75.36Z" fill="black" />
                        <path d="M70.3101 75.36H65.26V80.41H70.3101V75.36Z" fill="black" />
                        <path d="M85.46 75.36H80.41V80.41H85.46V75.36Z" fill="black" />
                        <path d="M95.5701 75.36H90.52V80.41H95.5701V75.36Z" fill="black" />
                        <path d="M105.67 75.36H100.62V80.41H105.67V75.36Z" fill="black" />
                        <path d="M110.72 75.36H105.67V80.41H110.72V75.36Z" fill="black" />
                        <path d="M120.83 75.36H115.78V80.41H120.83V75.36Z" fill="black" />
                        <path d="M125.88 75.36H120.83V80.41H125.88V75.36Z" fill="black" />
                        <path d="M130.93 75.36H125.88V80.41H130.93V75.36Z" fill="black" />
                        <path d="M146.08 75.36H141.03V80.41H146.08V75.36Z" fill="black" />
                        <path d="M156.19 75.36H151.14V80.41H156.19V75.36Z" fill="black" />
                        <path d="M19.79 80.41H14.74V85.46H19.79V80.41Z" fill="black" />
                        <path d="M24.85 80.41H19.8V85.46H24.85V80.41Z" fill="black" />
                        <path d="M29.9 80.41H24.85V85.46H29.9V80.41Z" fill="black" />
                        <path d="M45.05 80.41H40V85.46H45.05V80.41Z" fill="black" />
                        <path d="M55.16 80.41H50.11V85.46H55.16V80.41Z" fill="black" />
                        <path d="M60.21 80.41H55.16V85.46H60.21V80.41Z" fill="black" />
                        <path d="M65.26 80.41H60.21V85.46H65.26V80.41Z" fill="black" />
                        <path d="M70.3101 80.41H65.26V85.46H70.3101V80.41Z" fill="black" />
                        <path d="M75.36 80.41H70.3101V85.46H75.36V80.41Z" fill="black" />
                        <path d="M80.41 80.41H75.36V85.46H80.41V80.41Z" fill="black" />
                        <path d="M90.52 80.41H85.47V85.46H90.52V80.41Z" fill="black" />
                        <path d="M105.67 80.41H100.62V85.46H105.67V80.41Z" fill="black" />
                        <path d="M110.72 80.41H105.67V85.46H110.72V80.41Z" fill="black" />
                        <path d="M115.77 80.41H110.72V85.46H115.77V80.41Z" fill="black" />
                        <path d="M135.98 80.41H130.93V85.46H135.98V80.41Z" fill="black" />
                        <path d="M151.13 80.41H146.08V85.46H151.13V80.41Z" fill="black" />
                        <path d="M161.24 80.41H156.19V85.46H161.24V80.41Z" fill="black" />
                        <path d="M166.29 80.41H161.24V85.46H166.29V80.41Z" fill="black" />
                        <path d="M181.44 80.41H176.39V85.46H181.44V80.41Z" fill="black" />
                        <path d="M34.9501 85.47H29.9V90.52H34.9501V85.47Z" fill="black" />
                        <path d="M40 85.47H34.9501V90.52H40V85.47Z" fill="black" />
                        <path d="M55.16 85.47H50.11V90.52H55.16V85.47Z" fill="black" />
                        <path d="M65.26 85.47H60.21V90.52H65.26V85.47Z" fill="black" />
                        <path d="M75.36 85.47H70.3101V90.52H75.36V85.47Z" fill="black" />
                        <path d="M85.46 85.47H80.41V90.52H85.46V85.47Z" fill="black" />
                        <path d="M90.52 85.47H85.47V90.52H90.52V85.47Z" fill="black" />
                        <path d="M130.93 85.47H125.88V90.52H130.93V85.47Z" fill="black" />
                        <path d="M146.08 85.47H141.03V90.52H146.08V85.47Z" fill="black" />
                        <path d="M156.19 85.47H151.14V90.52H156.19V85.47Z" fill="black" />
                        <path d="M161.24 85.47H156.19V90.52H161.24V85.47Z" fill="black" />
                        <path d="M176.39 85.47H171.34V90.52H176.39V85.47Z" fill="black" />
                        <path d="M19.79 90.52H14.74V95.57H19.79V90.52Z" fill="black" />
                        <path d="M24.85 90.52H19.8V95.57H24.85V90.52Z" fill="black" />
                        <path d="M29.9 90.52H24.85V95.57H29.9V90.52Z" fill="black" />
                        <path d="M40 90.52H34.9501V95.57H40V90.52Z" fill="black" />
                        <path d="M55.16 90.52H50.11V95.57H55.16V90.52Z" fill="black" />
                        <path d="M60.21 90.52H55.16V95.57H60.21V90.52Z" fill="black" />
                        <path d="M65.26 90.52H60.21V95.57H65.26V90.52Z" fill="black" />
                        <path d="M70.3101 90.52H65.26V95.57H70.3101V90.52Z" fill="black" />
                        <path d="M75.36 90.52H70.3101V95.57H75.36V90.52Z" fill="black" />
                        <path d="M85.46 90.52H80.41V95.57H85.46V90.52Z" fill="black" />
                        <path d="M90.52 90.52H85.47V95.57H90.52V90.52Z" fill="black" />
                        <path d="M100.62 90.52H95.5701V95.57H100.62V90.52Z" fill="black" />
                        <path d="M110.72 90.52H105.67V95.57H110.72V90.52Z" fill="black" />
                        <path d="M115.77 90.52H110.72V95.57H115.77V90.52Z" fill="black" />
                        <path d="M120.83 90.52H115.78V95.57H120.83V90.52Z" fill="black" />
                        <path d="M125.88 90.52H120.83V95.57H125.88V90.52Z" fill="black" />
                        <path d="M130.93 90.52H125.88V95.57H130.93V90.52Z" fill="black" />
                        <path d="M146.08 90.52H141.03V95.57H146.08V90.52Z" fill="black" />
                        <path d="M151.13 90.52H146.08V95.57H151.13V90.52Z" fill="black" />
                        <path d="M161.24 90.52H156.19V95.57H161.24V90.52Z" fill="black" />
                        <path d="M166.29 90.52H161.24V95.57H166.29V90.52Z" fill="black" />
                        <path d="M181.44 90.52H176.39V95.57H181.44V90.52Z" fill="black" />
                        <path d="M24.85 95.5701H19.8V100.62H24.85V95.5701Z" fill="black" />
                        <path d="M29.9 95.5701H24.85V100.62H29.9V95.5701Z" fill="black" />
                        <path d="M34.9501 95.5701H29.9V100.62H34.9501V95.5701Z" fill="black" />
                        <path d="M40 95.5701H34.9501V100.62H40V95.5701Z" fill="black" />
                        <path d="M45.05 95.5701H40V100.62H45.05V95.5701Z" fill="black" />
                        <path d="M55.16 95.5701H50.11V100.62H55.16V95.5701Z" fill="black" />
                        <path d="M65.26 95.5701H60.21V100.62H65.26V95.5701Z" fill="black" />
                        <path d="M75.36 95.5701H70.3101V100.62H75.36V95.5701Z" fill="black" />
                        <path d="M80.41 95.5701H75.36V100.62H80.41V95.5701Z" fill="black" />
                        <path d="M85.46 95.5701H80.41V100.62H85.46V95.5701Z" fill="black" />
                        <path d="M90.52 95.5701H85.47V100.62H90.52V95.5701Z" fill="black" />
                        <path d="M100.62 95.5701H95.5701V100.62H100.62V95.5701Z" fill="black" />
                        <path d="M105.67 95.5701H100.62V100.62H105.67V95.5701Z" fill="black" />
                        <path d="M110.72 95.5701H105.67V100.62H110.72V95.5701Z" fill="black" />
                        <path d="M115.77 95.5701H110.72V100.62H115.77V95.5701Z" fill="black" />
                        <path d="M146.08 95.5701H141.03V100.62H146.08V95.5701Z" fill="black" />
                        <path d="M161.24 95.5701H156.19V100.62H161.24V95.5701Z" fill="black" />
                        <path d="M171.34 95.5701H166.29V100.62H171.34V95.5701Z" fill="black" />
                        <path d="M181.44 95.5701H176.39V100.62H181.44V95.5701Z" fill="black" />
                        <path d="M34.9501 100.62H29.9V105.67H34.9501V100.62Z" fill="black" />
                        <path d="M40 100.62H34.9501V105.67H40V100.62Z" fill="black" />
                        <path d="M55.16 100.62H50.11V105.67H55.16V100.62Z" fill="black" />
                        <path d="M60.21 100.62H55.16V105.67H60.21V100.62Z" fill="black" />
                        <path d="M65.26 100.62H60.21V105.67H65.26V100.62Z" fill="black" />
                        <path d="M70.3101 100.62H65.26V105.67H70.3101V100.62Z" fill="black" />
                        <path d="M80.41 100.62H75.36V105.67H80.41V100.62Z" fill="black" />
                        <path d="M85.46 100.62H80.41V105.67H85.46V100.62Z" fill="black" />
                        <path d="M100.62 100.62H95.5701V105.67H100.62V100.62Z" fill="black" />
                        <path d="M105.67 100.62H100.62V105.67H105.67V100.62Z" fill="black" />
                        <path d="M115.77 100.62H110.72V105.67H115.77V100.62Z" fill="black" />
                        <path d="M120.83 100.62H115.78V105.67H120.83V100.62Z" fill="black" />
                        <path d="M135.98 100.62H130.93V105.67H135.98V100.62Z" fill="black" />
                        <path d="M141.03 100.62H135.98V105.67H141.03V100.62Z" fill="black" />
                        <path d="M146.08 100.62H141.03V105.67H146.08V100.62Z" fill="black" />
                        <path d="M24.85 105.67H19.8V110.72H24.85V105.67Z" fill="black" />
                        <path d="M45.05 105.67H40V110.72H45.05V105.67Z" fill="black" />
                        <path d="M55.16 105.67H50.11V110.72H55.16V105.67Z" fill="black" />
                        <path d="M60.21 105.67H55.16V110.72H60.21V105.67Z" fill="black" />
                        <path d="M65.26 105.67H60.21V110.72H65.26V105.67Z" fill="black" />
                        <path d="M75.36 105.67H70.3101V110.72H75.36V105.67Z" fill="black" />
                        <path d="M90.52 105.67H85.47V110.72H90.52V105.67Z" fill="black" />
                        <path d="M115.77 105.67H110.72V110.72H115.77V105.67Z" fill="black" />
                        <path d="M130.93 105.67H125.88V110.72H130.93V105.67Z" fill="black" />
                        <path d="M161.24 105.67H156.19V110.72H161.24V105.67Z" fill="black" />
                        <path d="M171.34 105.67H166.29V110.72H171.34V105.67Z" fill="black" />
                        <path d="M19.79 110.72H14.74V115.77H19.79V110.72Z" fill="black" />
                        <path d="M29.9 110.72H24.85V115.77H29.9V110.72Z" fill="black" />
                        <path d="M34.9501 110.72H29.9V115.77H34.9501V110.72Z" fill="black" />
                        <path d="M45.05 110.72H40V115.77H45.05V110.72Z" fill="black" />
                        <path d="M55.16 110.72H50.11V115.77H55.16V110.72Z" fill="black" />
                        <path d="M70.3101 110.72H65.26V115.77H70.3101V110.72Z" fill="black" />
                        <path d="M80.41 110.72H75.36V115.77H80.41V110.72Z" fill="black" />
                        <path d="M95.5701 110.72H90.52V115.77H95.5701V110.72Z" fill="black" />
                        <path d="M100.62 110.72H95.5701V115.77H100.62V110.72Z" fill="black" />
                        <path d="M105.67 110.72H100.62V115.77H105.67V110.72Z" fill="black" />
                        <path d="M120.83 110.72H115.78V115.77H120.83V110.72Z" fill="black" />
                        <path d="M125.88 110.72H120.83V115.77H125.88V110.72Z" fill="black" />
                        <path d="M135.98 110.72H130.93V115.77H135.98V110.72Z" fill="black" />
                        <path d="M141.03 110.72H135.98V115.77H141.03V110.72Z" fill="black" />
                        <path d="M146.08 110.72H141.03V115.77H146.08V110.72Z" fill="black" />
                        <path d="M161.24 110.72H156.19V115.77H161.24V110.72Z" fill="black" />
                        <path d="M166.29 110.72H161.24V115.77H166.29V110.72Z" fill="black" />
                        <path d="M171.34 110.72H166.29V115.77H171.34V110.72Z" fill="black" />
                        <path d="M176.39 110.72H171.34V115.77H176.39V110.72Z" fill="black" />
                        <path d="M181.44 110.72H176.39V115.77H181.44V110.72Z" fill="black" />
                        <path d="M29.9 115.78H24.85V120.83H29.9V115.78Z" fill="black" />
                        <path d="M34.9501 115.78H29.9V120.83H34.9501V115.78Z" fill="black" />
                        <path d="M40 115.78H34.9501V120.83H40V115.78Z" fill="black" />
                        <path d="M65.26 115.78H60.21V120.83H65.26V115.78Z" fill="black" />
                        <path d="M70.3101 115.78H65.26V120.83H70.3101V115.78Z" fill="black" />
                        <path d="M75.36 115.78H70.3101V120.83H75.36V115.78Z" fill="black" />
                        <path d="M85.46 115.78H80.41V120.83H85.46V115.78Z" fill="black" />
                        <path d="M120.83 115.78H115.78V120.83H120.83V115.78Z" fill="black" />
                        <path d="M130.93 115.78H125.88V120.83H130.93V115.78Z" fill="black" />
                        <path d="M141.03 115.78H135.98V120.83H141.03V115.78Z" fill="black" />
                        <path d="M156.19 115.78H151.14V120.83H156.19V115.78Z" fill="black" />
                        <path d="M161.24 115.78H156.19V120.83H161.24V115.78Z" fill="black" />
                        <path d="M166.29 115.78H161.24V120.83H166.29V115.78Z" fill="black" />
                        <path d="M176.39 115.78H171.34V120.83H176.39V115.78Z" fill="black" />
                        <path d="M181.44 115.78H176.39V120.83H181.44V115.78Z" fill="black" />
                        <path d="M19.79 120.83H14.74V125.88H19.79V120.83Z" fill="black" />
                        <path d="M55.16 120.83H50.11V125.88H55.16V120.83Z" fill="black" />
                        <path d="M70.3101 120.83H65.26V125.88H70.3101V120.83Z" fill="black" />
                        <path d="M85.46 120.83H80.41V125.88H85.46V120.83Z" fill="black" />
                        <path d="M95.5701 120.83H90.52V125.88H95.5701V120.83Z" fill="black" />
                        <path d="M105.67 120.83H100.62V125.88H105.67V120.83Z" fill="black" />
                        <path d="M110.72 120.83H105.67V125.88H110.72V120.83Z" fill="black" />
                        <path d="M115.77 120.83H110.72V125.88H115.77V120.83Z" fill="black" />
                        <path d="M120.83 120.83H115.78V125.88H120.83V120.83Z" fill="black" />
                        <path d="M125.88 120.83H120.83V125.88H125.88V120.83Z" fill="black" />
                        <path d="M130.93 120.83H125.88V125.88H130.93V120.83Z" fill="black" />
                        <path d="M146.08 120.83H141.03V125.88H146.08V120.83Z" fill="black" />
                        <path d="M171.34 120.83H166.29V125.88H171.34V120.83Z" fill="black" />
                        <path d="M176.39 120.83H171.34V125.88H176.39V120.83Z" fill="black" />
                        <path d="M181.44 120.83H176.39V125.88H181.44V120.83Z" fill="black" />
                        <path d="M19.79 125.88H14.74V130.93H19.79V125.88Z" fill="black" />
                        <path d="M29.9 125.88H24.85V130.93H29.9V125.88Z" fill="black" />
                        <path d="M34.9501 125.88H29.9V130.93H34.9501V125.88Z" fill="black" />
                        <path d="M40 125.88H34.9501V130.93H40V125.88Z" fill="black" />
                        <path d="M60.21 125.88H55.16V130.93H60.21V125.88Z" fill="black" />
                        <path d="M65.26 125.88H60.21V130.93H65.26V125.88Z" fill="black" />
                        <path d="M85.46 125.88H80.41V130.93H85.46V125.88Z" fill="black" />
                        <path d="M95.5701 125.88H90.52V130.93H95.5701V125.88Z" fill="black" />
                        <path d="M100.62 125.88H95.5701V130.93H100.62V125.88Z" fill="black" />
                        <path d="M105.67 125.88H100.62V130.93H105.67V125.88Z" fill="black" />
                        <path d="M110.72 125.88H105.67V130.93H110.72V125.88Z" fill="black" />
                        <path d="M115.77 125.88H110.72V130.93H115.77V125.88Z" fill="black" />
                        <path d="M120.83 125.88H115.78V130.93H120.83V125.88Z" fill="black" />
                        <path d="M130.93 125.88H125.88V130.93H130.93V125.88Z" fill="black" />
                        <path d="M135.98 125.88H130.93V130.93H135.98V125.88Z" fill="black" />
                        <path d="M141.03 125.88H135.98V130.93H141.03V125.88Z" fill="black" />
                        <path d="M161.24 125.88H156.19V130.93H161.24V125.88Z" fill="black" />
                        <path d="M176.39 125.88H171.34V130.93H176.39V125.88Z" fill="black" />
                        <path d="M19.79 130.93H14.74V135.98H19.79V130.93Z" fill="black" />
                        <path d="M29.9 130.93H24.85V135.98H29.9V130.93Z" fill="black" />
                        <path d="M40 130.93H34.9501V135.98H40V130.93Z" fill="black" />
                        <path d="M70.3101 130.93H65.26V135.98H70.3101V130.93Z" fill="black" />
                        <path d="M95.5701 130.93H90.52V135.98H95.5701V130.93Z" fill="black" />
                        <path d="M100.62 130.93H95.5701V135.98H100.62V130.93Z" fill="black" />
                        <path d="M115.77 130.93H110.72V135.98H115.77V130.93Z" fill="black" />
                        <path d="M125.88 130.93H120.83V135.98H125.88V130.93Z" fill="black" />
                        <path d="M135.98 130.93H130.93V135.98H135.98V130.93Z" fill="black" />
                        <path d="M156.19 130.93H151.14V135.98H156.19V130.93Z" fill="black" />
                        <path d="M166.29 130.93H161.24V135.98H166.29V130.93Z" fill="black" />
                        <path d="M171.34 130.93H166.29V135.98H171.34V130.93Z" fill="black" />
                        <path d="M19.79 135.98H14.74V141.03H19.79V135.98Z" fill="black" />
                        <path d="M29.9 135.98H24.85V141.03H29.9V135.98Z" fill="black" />
                        <path d="M40 135.98H34.9501V141.03H40V135.98Z" fill="black" />
                        <path d="M45.05 135.98H40V141.03H45.05V135.98Z" fill="black" />
                        <path d="M60.21 135.98H55.16V141.03H60.21V135.98Z" fill="black" />
                        <path d="M65.26 135.98H60.21V141.03H65.26V135.98Z" fill="black" />
                        <path d="M70.3101 135.98H65.26V141.03H70.3101V135.98Z" fill="black" />
                        <path d="M75.36 135.98H70.3101V141.03H75.36V135.98Z" fill="black" />
                        <path d="M80.41 135.98H75.36V141.03H80.41V135.98Z" fill="black" />
                        <path d="M85.46 135.98H80.41V141.03H85.46V135.98Z" fill="black" />
                        <path d="M90.52 135.98H85.47V141.03H90.52V135.98Z" fill="black" />
                        <path d="M95.5701 135.98H90.52V141.03H95.5701V135.98Z" fill="black" />
                        <path d="M100.62 135.98H95.5701V141.03H100.62V135.98Z" fill="black" />
                        <path d="M105.67 135.98H100.62V141.03H105.67V135.98Z" fill="black" />
                        <path d="M115.77 135.98H110.72V141.03H115.77V135.98Z" fill="black" />
                        <path d="M130.93 135.98H125.88V141.03H130.93V135.98Z" fill="black" />
                        <path d="M135.98 135.98H130.93V141.03H135.98V135.98Z" fill="black" />
                        <path d="M60.21 141.03H55.16V146.08H60.21V141.03Z" fill="black" />
                        <path d="M65.26 141.03H60.21V146.08H65.26V141.03Z" fill="black" />
                        <path d="M70.3101 141.03H65.26V146.08H70.3101V141.03Z" fill="black" />
                        <path d="M80.41 141.03H75.36V146.08H80.41V141.03Z" fill="black" />
                        <path d="M95.5701 141.03H90.52V146.08H95.5701V141.03Z" fill="black" />
                        <path d="M100.62 141.03H95.5701V146.08H100.62V141.03Z" fill="black" />
                        <path d="M105.67 141.03H100.62V146.08H105.67V141.03Z" fill="black" />
                        <path d="M110.72 141.03H105.67V146.08H110.72V141.03Z" fill="black" />
                        <path d="M115.77 141.03H110.72V146.08H115.77V141.03Z" fill="black" />
                        <path d="M120.83 141.03H115.78V146.08H120.83V141.03Z" fill="black" />
                        <path d="M125.88 141.03H120.83V146.08H125.88V141.03Z" fill="black" />
                        <path d="M135.98 141.03H130.93V146.08H135.98V141.03Z" fill="black" />
                        <path d="M166.29 141.03H161.24V146.08H166.29V141.03Z" fill="black" />
                        <path d="M176.39 141.03H171.34V146.08H176.39V141.03Z" fill="black" />
                        <path d="M181.44 141.03H176.39V146.08H181.44V141.03Z" fill="black" />
                        <path d="M75.36 146.08H70.3101V151.13H75.36V146.08Z" fill="black" />
                        <path d="M85.46 146.08H80.41V151.13H85.46V146.08Z" fill="black" />
                        <path d="M90.52 146.08H85.47V151.13H90.52V146.08Z" fill="black" />
                        <path d="M105.67 146.08H100.62V151.13H105.67V146.08Z" fill="black" />
                        <path d="M110.72 146.08H105.67V151.13H110.72V146.08Z" fill="black" />
                        <path d="M120.83 146.08H115.78V151.13H120.83V146.08Z" fill="black" />
                        <path d="M125.88 146.08H120.83V151.13H125.88V146.08Z" fill="black" />
                        <path d="M135.98 146.08H130.93V151.13H135.98V146.08Z" fill="black" />
                        <path d="M166.29 146.08H161.24V151.13H166.29V146.08Z" fill="black" />
                        <path d="M176.39 146.08H171.34V151.13H176.39V146.08Z" fill="black" />
                        <path d="M70.3101 151.14H65.26V156.19H70.3101V151.14Z" fill="black" />
                        <path d="M75.36 151.14H70.3101V156.19H75.36V151.14Z" fill="black" />
                        <path d="M80.41 151.14H75.36V156.19H80.41V151.14Z" fill="black" />
                        <path d="M85.46 151.14H80.41V156.19H85.46V151.14Z" fill="black" />
                        <path d="M100.62 151.14H95.5701V156.19H100.62V151.14Z" fill="black" />
                        <path d="M105.67 151.14H100.62V156.19H105.67V151.14Z" fill="black" />
                        <path d="M110.72 151.14H105.67V156.19H110.72V151.14Z" fill="black" />
                        <path d="M115.77 151.14H110.72V156.19H115.77V151.14Z" fill="black" />
                        <path d="M120.83 151.14H115.78V156.19H120.83V151.14Z" fill="black" />
                        <path d="M125.88 151.14H120.83V156.19H125.88V151.14Z" fill="black" />
                        <path d="M130.93 151.14H125.88V156.19H130.93V151.14Z" fill="black" />
                        <path d="M135.98 151.14H130.93V156.19H135.98V151.14Z" fill="black" />
                        <path d="M171.34 151.14H166.29V156.19H171.34V151.14Z" fill="black" />
                        <path d="M176.39 151.14H171.34V156.19H176.39V151.14Z" fill="black" />
                        <path d="M181.44 151.14H176.39V156.19H181.44V151.14Z" fill="black" />
                        <path d="M60.21 156.19H55.16V161.24H60.21V156.19Z" fill="black" />
                        <path d="M65.26 156.19H60.21V161.24H65.26V156.19Z" fill="black" />
                        <path d="M70.3101 156.19H65.26V161.24H70.3101V156.19Z" fill="black" />
                        <path d="M85.46 156.19H80.41V161.24H85.46V156.19Z" fill="black" />
                        <path d="M90.52 156.19H85.47V161.24H90.52V156.19Z" fill="black" />
                        <path d="M95.5701 156.19H90.52V161.24H95.5701V156.19Z" fill="black" />
                        <path d="M100.62 156.19H95.5701V161.24H100.62V156.19Z" fill="black" />
                        <path d="M105.67 156.19H100.62V161.24H105.67V156.19Z" fill="black" />
                        <path d="M110.72 156.19H105.67V161.24H110.72V156.19Z" fill="black" />
                        <path d="M120.83 156.19H115.78V161.24H120.83V156.19Z" fill="black" />
                        <path d="M125.88 156.19H120.83V161.24H125.88V156.19Z" fill="black" />
                        <path d="M176.39 156.19H171.34V161.24H176.39V156.19Z" fill="black" />
                        <path d="M181.44 156.19H176.39V161.24H181.44V156.19Z" fill="black" />
                        <path d="M60.21 161.24H55.16V166.29H60.21V161.24Z" fill="black" />
                        <path d="M65.26 161.24H60.21V166.29H65.26V161.24Z" fill="black" />
                        <path d="M80.41 161.24H75.36V166.29H80.41V161.24Z" fill="black" />
                        <path d="M105.67 161.24H100.62V166.29H105.67V161.24Z" fill="black" />
                        <path d="M110.72 161.24H105.67V166.29H110.72V161.24Z" fill="black" />
                        <path d="M115.77 161.24H110.72V166.29H115.77V161.24Z" fill="black" />
                        <path d="M130.93 161.24H125.88V166.29H130.93V161.24Z" fill="black" />
                        <path d="M135.98 161.24H130.93V166.29H135.98V161.24Z" fill="black" />
                        <path d="M141.03 161.24H135.98V166.29H141.03V161.24Z" fill="black" />
                        <path d="M146.08 161.24H141.03V166.29H146.08V161.24Z" fill="black" />
                        <path d="M161.24 161.24H156.19V166.29H161.24V161.24Z" fill="black" />
                        <path d="M171.34 161.24H166.29V166.29H171.34V161.24Z" fill="black" />
                        <path d="M176.39 161.24H171.34V166.29H176.39V161.24Z" fill="black" />
                        <path d="M60.21 166.29H55.16V171.34H60.21V166.29Z" fill="black" />
                        <path d="M75.36 166.29H70.3101V171.34H75.36V166.29Z" fill="black" />
                        <path d="M95.5701 166.29H90.52V171.34H95.5701V166.29Z" fill="black" />
                        <path d="M110.72 166.29H105.67V171.34H110.72V166.29Z" fill="black" />
                        <path d="M115.77 166.29H110.72V171.34H115.77V166.29Z" fill="black" />
                        <path d="M130.93 166.29H125.88V171.34H130.93V166.29Z" fill="black" />
                        <path d="M135.98 166.29H130.93V171.34H135.98V166.29Z" fill="black" />
                        <path d="M141.03 166.29H135.98V171.34H141.03V166.29Z" fill="black" />
                        <path d="M146.08 166.29H141.03V171.34H146.08V166.29Z" fill="black" />
                        <path d="M151.13 166.29H146.08V171.34H151.13V166.29Z" fill="black" />
                        <path d="M166.29 166.29H161.24V171.34H166.29V166.29Z" fill="black" />
                        <path d="M171.34 166.29H166.29V171.34H171.34V166.29Z" fill="black" />
                        <path d="M65.26 171.34H60.21V176.39H65.26V171.34Z" fill="black" />
                        <path d="M70.3101 171.34H65.26V176.39H70.3101V171.34Z" fill="black" />
                        <path d="M75.36 171.34H70.3101V176.39H75.36V171.34Z" fill="black" />
                        <path d="M85.46 171.34H80.41V176.39H85.46V171.34Z" fill="black" />
                        <path d="M90.52 171.34H85.47V176.39H90.52V171.34Z" fill="black" />
                        <path d="M105.67 171.34H100.62V176.39H105.67V171.34Z" fill="black" />
                        <path d="M120.83 171.34H115.78V176.39H120.83V171.34Z" fill="black" />
                        <path d="M146.08 171.34H141.03V176.39H146.08V171.34Z" fill="black" />
                        <path d="M156.19 171.34H151.14V176.39H156.19V171.34Z" fill="black" />
                        <path d="M171.34 171.34H166.29V176.39H171.34V171.34Z" fill="black" />
                        <path d="M65.26 176.39H60.21V181.44H65.26V176.39Z" fill="black" />
                        <path d="M70.3101 176.39H65.26V181.44H70.3101V176.39Z" fill="black" />
                        <path d="M75.36 176.39H70.3101V181.44H75.36V176.39Z" fill="black" />
                        <path d="M80.41 176.39H75.36V181.44H80.41V176.39Z" fill="black" />
                        <path d="M85.46 176.39H80.41V181.44H85.46V176.39Z" fill="black" />
                        <path d="M95.5701 176.39H90.52V181.44H95.5701V176.39Z" fill="black" />
                        <path d="M115.77 176.39H110.72V181.44H115.77V176.39Z" fill="black" />
                        <path d="M125.88 176.39H120.83V181.44H125.88V176.39Z" fill="black" />
                        <path d="M130.93 176.39H125.88V181.44H130.93V176.39Z" fill="black" />
                        <path d="M135.98 176.39H130.93V181.44H135.98V176.39Z" fill="black" />
                        <path d="M141.03 176.39H135.98V181.44H141.03V176.39Z" fill="black" />
                        <path d="M166.29 176.39H161.24V181.44H166.29V176.39Z" fill="black" />
                        <path d="M171.34 176.39H166.29V181.44H171.34V176.39Z" fill="black" />
                        <path d="M176.39 176.39H171.34V181.44H176.39V176.39Z" fill="black" />
                        <mask id="mask0_355_2" maskUnits="userSpaceOnUse" x="14" y="14" width="37" height="37">
                            <path d="M50.1 14.74H14.74V50.1H50.1V14.74Z" fill="white" />
                        </mask>
                        <g mask="url(#mask0_355_2)">
                            <path d="M19.8 19.8V45.06H45.0601V19.8H19.8ZM14.74 14.74H50.1V50.1H14.74V14.74Z" fill="black" />
                        </g>
                        <mask id="mask1_355_2" maskUnits="userSpaceOnUse" x="146" y="14" width="36" height="37">
                            <path d="M181.44 14.74H146.08V50.1H181.44V14.74Z" fill="white" />
                        </mask>
                        <g mask="url(#mask1_355_2)">
                            <path d="M151.14 19.8V45.06H176.4V19.8H151.14ZM146.08 14.74H181.44V50.1H146.08V14.74Z" fill="black" />
                        </g>
                        <mask id="mask2_355_2" maskUnits="userSpaceOnUse" x="14" y="146" width="37" height="36">
                            <path d="M50.1 146.08H14.74V181.44H50.1V146.08Z" fill="white" />
                        </mask>
                        <g mask="url(#mask2_355_2)">
                            <path d="M19.8 151.14V176.4H45.0601V151.14H19.8ZM14.74 146.08H50.1V181.44H14.74V146.08Z" fill="black" />
                        </g>
                        <path d="M40 24.85H24.85V40H40V24.85Z" fill="black" />
                        <mask id="mask3_355_2" maskUnits="userSpaceOnUse" x="24" y="24" width="16" height="16">
                            <path d="M40 24.85H24.85V40H40V24.85Z" fill="white" />
                        </mask>
                        <g mask="url(#mask3_355_2)">
                            <path d="M40 24.85H24.85V40H40V24.85Z" fill="black" />
                        </g>
                        <path d="M171.34 24.85H156.19V40H171.34V24.85Z" fill="black" />
                        <mask id="mask4_355_2" maskUnits="userSpaceOnUse" x="156" y="24" width="16" height="16">
                            <path d="M171.34 24.85H156.19V40H171.34V24.85Z" fill="white" />
                        </mask>
                        <g mask="url(#mask4_355_2)">
                            <path d="M171.34 24.85H156.19V40H171.34V24.85Z" fill="black" />
                        </g>
                        <path d="M40 156.19H24.85V171.34H40V156.19Z" fill="black" />
                        <mask id="mask5_355_2" maskUnits="userSpaceOnUse" x="24" y="156" width="16" height="16">
                            <path d="M40 156.19H24.85V171.34H40V156.19Z" fill="white" />
                        </mask>
                        <g mask="url(#mask5_355_2)">
                            <path d="M40 156.19H24.85V171.34H40V156.19Z" fill="black" />
                        </g>
                        <path d="M60.21 45.05H55.16V50.1001H60.21V45.05Z" fill="black" />
                        <path d="M50.1 55.16H45.05V60.21H50.1V55.16Z" fill="black" />
                        <path d="M70.3101 45.05H65.26V50.1001H70.3101V45.05Z" fill="black" />
                        <path d="M50.1 65.26H45.05V70.31H50.1V65.26Z" fill="black" />
                        <path d="M80.41 45.05H75.36V50.1001H80.41V45.05Z" fill="black" />
                        <path d="M50.1 75.36H45.05V80.41H50.1V75.36Z" fill="black" />
                        <path d="M90.52 45.05H85.47V50.1001H90.52V45.05Z" fill="black" />
                        <path d="M50.1 85.47H45.05V90.52H50.1V85.47Z" fill="black" />
                        <path d="M100.62 45.05H95.5701V50.1001H100.62V45.05Z" fill="black" />
                        <path d="M50.1 95.5701H45.05V100.62H50.1V95.5701Z" fill="black" />
                        <path d="M110.72 45.05H105.67V50.1001H110.72V45.05Z" fill="black" />
                        <path d="M50.1 105.67H45.05V110.72H50.1V105.67Z" fill="black" />
                        <path d="M120.83 45.05H115.78V50.1001H120.83V45.05Z" fill="black" />
                        <path d="M50.1 115.78H45.05V120.83H50.1V115.78Z" fill="black" />
                        <path d="M130.93 45.05H125.88V50.1001H130.93V45.05Z" fill="black" />
                        <path d="M50.1 125.88H45.05V130.93H50.1V125.88Z" fill="black" />
                        <path d="M141.03 45.05H135.98V50.1001H141.03V45.05Z" fill="black" />
                        <path d="M50.1 135.98H45.05V141.03H50.1V135.98Z" fill="black" />
                        <path d="M141.03 135.98H135.98V141.03H141.03V135.98Z" fill="black" />
                        <path d="M141.03 141.03H135.98V146.08H141.03V141.03Z" fill="black" />
                        <path d="M141.03 146.08H135.98V151.13H141.03V146.08Z" fill="black" />
                        <path d="M141.03 151.14H135.98V156.19H141.03V151.14Z" fill="black" />
                        <path d="M161.24 141.03H156.19V146.08H161.24V141.03Z" fill="black" />
                        <path d="M161.24 146.08H156.19V151.13H161.24V146.08Z" fill="black" />
                        <path d="M161.24 151.14H156.19V156.19H161.24V151.14Z" fill="black" />
                        <path d="M161.24 156.19H156.19V161.24H161.24V156.19Z" fill="black" />
                        <path d="M146.08 135.98H141.03V141.03H146.08V135.98Z" fill="black" />
                        <path d="M151.13 135.98H146.08V141.03H151.13V135.98Z" fill="black" />
                        <path d="M156.19 135.98H151.14V141.03H156.19V135.98Z" fill="black" />
                        <path d="M161.24 135.98H156.19V141.03H161.24V135.98Z" fill="black" />
                        <path d="M141.03 156.19H135.98V161.24H141.03V156.19Z" fill="black" />
                        <path d="M146.08 156.19H141.03V161.24H146.08V156.19Z" fill="black" />
                        <path d="M151.13 156.19H146.08V161.24H151.13V156.19Z" fill="black" />
                        <path d="M156.19 156.19H151.14V161.24H156.19V156.19Z" fill="black" />
                        <path d="M151.13 146.08H146.08V151.13H151.13V146.08Z" fill="black" />
                    </svg>