<svg width="20" height="20" viewBox="0 0 67 67" fill="none" xmlns="http://www.w3.org/2000/svg">
<path d="M48.5601 41.23H44.7L39.21 36.02L41.22 34.24L48.5601 41.23Z" fill="black" />
<path d="M27.6299 36.1301L22.1899 41.2301H18.24L25.5901 34.3101L27.6299 36.1301Z" fill="black" />
<path d="M12.0901 18.12V48.01H54.71V18.12H12.0901ZM53.4199 46.81H13.3899V19.33H53.4199V46.81Z" fill="black" />
<path d="M48.3799 24.91L44.45 28.42L39.6201 32.72L36.6799 35.35L36.7 35.38L34.3101 37.53C34.0501 37.8 33.7001 37.87 33.3601 37.87C33.1001 37.87 32.76 37.79 32.5 37.53L29.23 34.61L24.23 30.15H24.21L18.3301 24.91H27.3101L24.8799 27.08L30.02 31.69C30.08 31.75 30.1333 31.81 30.1799 31.87V31.95L33.3601 34.79L42.01 27.08L39.5801 24.91H48.3899H48.3799Z" fill="black" />
<path d="M60.53 66.02H6.26001C3.05001 66.02 0.439941 63.41 0.439941 60.2V5.92999C0.439941 2.71999 3.05001 0.109985 6.26001 0.109985H60.53C63.74 0.109985 66.3501 2.71999 66.3501 5.92999V60.2C66.3501 63.41 63.74 66.02 60.53 66.02ZM6.26001 1.57999C3.86001 1.57999 1.90991 3.52999 1.90991 5.92999V60.2C1.90991 62.6 3.86001 64.55 6.26001 64.55H60.53C62.93 64.55 64.8799 62.6 64.8799 60.2V5.92999C64.8799 3.52999 62.93 1.57999 60.53 1.57999H6.26001Z" fill="black" />
</svg>